# xmcd CD database file
#
# Track frame offsets:
#	150
#	14736
#	29612
#	45118
#	57706
#	72554
#	86219
#	100432
#	114182
#	127584
#	143813
#	157955
#	171934
#	185558
#	198503
#	212395
#	225693
#	240916
#
# Disc length: 3355 seconds
#
# Revision: 1
# Processed by: cddbd v1.5.2PL0 Copyright (c) Steve Scherf et al.
# Submitted via: CDex 1.70beta2
#
DISCID=f60d1912
DTITLE=Various Artist - Selection Of New Orleands - CD 1 - WAV
DYEAR=1997
DGENRE=Jazz
TTITLE0=New Orleans Wanderers - Perdido Street Blues
TTITLE1=Louis Armstrong and his Hot Five - West End Blues 
TTITLE2=Jelly-Roll Morton's Red Hot Peppers - Dr Jazz
TTITLE3=Johnny Dodd's Black Bottom Stompers - New Orleans Stomp
TTITLE4=Louis Armstrong and his Hot Five - Basin Stree Blues 
TTITLE5=Monk Hazel and His  Bienville Roof Orchestra - High Society
TTITLE6=Kid Ory and His Creole Jazz Band - Ory's Creole Trombone 
TTITLE7=Louis Armstrong and his Hot Five - Melancholy Blues
TTITLE8=Henry Allen and his New York Orchestra - Pleasin' Paul
TTITLE9=George Lewis and His New Orleans Stompers - Just a little while to stay here
TTITLE10=Louis Armstrong and his Hot Five - Alligator Crawl
TTITLE11=King Oliver and his Dixie Syncopators - Snag It
TTITLE12=Jely-Roll Morton's New Orleans Jazzmen - Oh, didn't he ramble
TTITLE13=New Orleans Feetwarmers - Sweetie Dear 
TTITLE14=Jimmie Noone's Apex Club Orchestra - Apex Blues
TTITLE15=King Oliver's Jazz Band - Working Man's Blues
TTITLE16=Louis Dumaine's Jazzola Eight - Franklin Street Blues
TTITLE17=New Orleans Rhythm Kings - Tiger Rag
EXTD=YEAR: 1997
EXTT0=
EXTT1=
EXTT2=
EXTT3=
EXTT4=
EXTT5=
EXTT6=
EXTT7=
EXTT8=
EXTT9=
EXTT10=
EXTT11=
EXTT12=
EXTT13=
EXTT14=
EXTT15=
EXTT16=
EXTT17=
PLAYORDER=
